<svg width="23" height="18" viewBox="0 0 23 18" fill="none" xmlns="http://www.w3.org/2000/svg">
<path d="M20.9785 0H2.02148C0.90823 0 0 0.932123 0 2.07692V15.9231C0 17.064 0.904188 18 2.02148 18H20.9785C22.089 18 23 17.071 23 15.9231V2.07692C23 0.936 22.0958 0 20.9785 0ZM20.6994 1.38462L11.5429 10.7923L2.30714 1.38462H20.6994ZM1.34766 15.6364V2.35703L7.83792 8.96811L1.34766 15.6364ZM2.30058 16.6154L8.79494 9.94292L11.0705 12.2609C11.334 12.5292 11.7591 12.5283 12.0214 12.2587L14.2402 9.97906L20.6994 16.6154H2.30058ZM21.6523 15.6363L15.1932 9L21.6523 2.36363V15.6363Z" fill="white"/>
</svg>
