<svg width="17" height="22" viewBox="0 0 17 22" fill="none" xmlns="http://www.w3.org/2000/svg">
<path fill-rule="evenodd" clip-rule="evenodd" d="M8.5 1.53488C4.67027 1.53488 1.54545 4.66959 1.54545 8.56183C1.54545 13.2921 4.63335 17.4504 8.34511 20.4079C8.44169 20.4842 8.55844 20.4842 8.655 20.4078C12.3667 17.4503 15.4545 13.2921 15.4545 8.56183C15.4545 4.66959 12.3297 1.53488 8.5 1.53488ZM0 8.56183C0 3.84443 3.79423 0 8.5 0C13.2058 0 17 3.84443 17 8.56183C17 13.9664 13.4958 18.5185 9.622 21.6051C8.96055 22.131 8.0401 22.1315 7.37865 21.6056C3.50482 18.519 0 13.9664 0 8.56183ZM8.5 5.78011C6.99459 5.78011 5.75413 7.0141 5.75413 8.56183C5.75413 10.1096 6.99459 11.3436 8.5 11.3436C10.0054 11.3436 11.2459 10.1096 11.2459 8.56183C11.2459 7.0141 10.0054 5.78011 8.5 5.78011ZM4.20867 8.56183C4.20867 6.18894 6.11854 4.24522 8.5 4.24522C10.8815 4.24522 12.7913 6.18894 12.7913 8.56183C12.7913 10.9347 10.8815 12.8784 8.5 12.8784C6.11854 12.8784 4.20867 10.9347 4.20867 8.56183Z" fill="white"/>
</svg>
