<svg width="170" height="22" viewBox="0 0 170 22" fill="none" xmlns="http://www.w3.org/2000/svg">
<path d="M20.4559 17.1111C20.3255 17.1111 20.2146 17.0655 20.1233 16.9742C20.032 16.8829 19.9863 16.7721 19.9863 16.6418V3.91109C19.9863 3.76768 20.0254 3.65035 20.1037 3.55909C20.195 3.46783 20.3124 3.4222 20.4559 3.4222H25.2306C29.066 3.4222 31.0228 5.19524 31.1011 8.74131C31.1272 9.49746 31.1403 10.0059 31.1403 10.2666C31.1403 10.5143 31.1272 11.0163 31.1011 11.7724C31.0489 13.5976 30.5597 14.9469 29.6335 15.8204C28.7073 16.6809 27.2722 17.1111 25.3285 17.1111H20.4559ZM25.2306 14.8622C26.3264 14.8622 27.1157 14.621 27.5984 14.1386C28.0811 13.6432 28.3355 12.8349 28.3616 11.7138C28.3876 10.9315 28.4007 10.4426 28.4007 10.2471C28.4007 10.0385 28.3876 9.55613 28.3616 8.79998C28.3355 7.73094 28.0615 6.9422 27.5397 6.43376C27.0309 5.92531 26.2286 5.67109 25.1328 5.67109H22.7063V14.8622H25.2306Z" fill="white"/>
<path d="M33.9018 5.26042C33.7714 5.26042 33.6605 5.21479 33.5692 5.12353C33.4779 5.03228 33.4322 4.92146 33.4322 4.79109V3.38309C33.4322 3.25272 33.4779 3.14191 33.5692 3.05065C33.6605 2.95939 33.7714 2.91376 33.9018 2.91376H35.6826C35.813 2.91376 35.9239 2.95939 36.0152 3.05065C36.1196 3.14191 36.1718 3.25272 36.1718 3.38309V4.79109C36.1718 4.92146 36.1261 5.03228 36.0348 5.12353C35.9435 5.21479 35.8261 5.26042 35.6826 5.26042H33.9018ZM33.9801 17.1111C33.8497 17.1111 33.7388 17.0655 33.6474 16.9742C33.5561 16.8829 33.5105 16.7721 33.5105 16.6418V7.41153C33.5105 7.28116 33.5561 7.17035 33.6474 7.07909C33.7388 6.98783 33.8497 6.9422 33.9801 6.9422H35.6043C35.7478 6.9422 35.8587 6.98783 35.9369 7.07909C36.0283 7.15731 36.0739 7.26813 36.0739 7.41153V16.6418C36.0739 16.7721 36.0283 16.8829 35.9369 16.9742C35.8587 17.0655 35.7478 17.1111 35.6043 17.1111H33.9801Z" fill="white"/>
<path d="M43.2687 21.4133C42.1076 21.4133 41.1683 21.2178 40.4508 20.8266C39.7333 20.4486 39.2245 20.0118 38.9245 19.5164C38.6244 19.021 38.4744 18.5973 38.4744 18.2453C38.4744 18.128 38.5201 18.0237 38.6114 17.9324C38.7158 17.8412 38.8266 17.7955 38.9441 17.7955H40.6465C40.7639 17.7955 40.8617 17.8216 40.94 17.8738C41.0313 17.9389 41.1031 18.0498 41.1553 18.2062C41.2857 18.5582 41.4945 18.8515 41.7815 19.0862C42.0815 19.3339 42.5446 19.4578 43.1708 19.4578C43.9535 19.4578 44.5276 19.2818 44.8928 18.9298C45.2712 18.5778 45.4603 17.9715 45.4603 17.1111V15.7813C44.7428 16.6287 43.7383 17.0524 42.4468 17.0524C41.09 17.0524 40.066 16.6352 39.3746 15.8009C38.6962 14.9665 38.3309 13.8453 38.2787 12.4373L38.2592 11.9093L38.2787 11.3813C38.3309 9.99939 38.7027 8.88472 39.3941 8.03731C40.0855 7.17687 41.1031 6.74665 42.4468 6.74665C43.1382 6.74665 43.7448 6.87702 44.2666 7.13776C44.7885 7.3985 45.2255 7.75702 45.5777 8.21331V7.43109C45.5777 7.28768 45.6234 7.17035 45.7147 7.07909C45.806 6.98783 45.9169 6.9422 46.0474 6.9422H47.6324C47.7629 6.9422 47.8737 6.99435 47.9651 7.09865C48.0564 7.18991 48.102 7.30072 48.102 7.43109L48.1216 16.8569C48.1216 18.304 47.7172 19.4252 46.9084 20.2204C46.0995 21.0157 44.8863 21.4133 43.2687 21.4133ZM43.1708 14.9795C43.9144 14.9795 44.4688 14.7449 44.8341 14.2755C45.2124 13.8062 45.4212 13.2326 45.4603 12.5546C45.4734 12.4503 45.4799 12.2352 45.4799 11.9093C45.4799 11.5964 45.4734 11.3878 45.4603 11.2835C45.4212 10.5926 45.2124 10.0124 44.8341 9.54309C44.4688 9.07376 43.9144 8.83909 43.1708 8.83909C41.7619 8.83909 41.0183 9.70605 40.94 11.44L40.9205 11.9093C40.9205 12.8349 41.0835 13.5781 41.4097 14.1386C41.7488 14.6992 42.3359 14.9795 43.1708 14.9795Z" fill="white"/>
<path d="M51.1197 5.26042C50.9892 5.26042 50.8783 5.21479 50.787 5.12353C50.6957 5.03228 50.6501 4.92146 50.6501 4.79109V3.38309C50.6501 3.25272 50.6957 3.14191 50.787 3.05065C50.8783 2.95939 50.9892 2.91376 51.1197 2.91376H52.9004C53.0309 2.91376 53.1418 2.95939 53.2331 3.05065C53.3374 3.14191 53.3896 3.25272 53.3896 3.38309V4.79109C53.3896 4.92146 53.344 5.03228 53.2526 5.12353C53.1613 5.21479 53.0439 5.26042 52.9004 5.26042H51.1197ZM51.198 17.1111C51.0675 17.1111 50.9566 17.0655 50.8653 16.9742C50.774 16.8829 50.7283 16.7721 50.7283 16.6418V7.41153C50.7283 7.28116 50.774 7.17035 50.8653 7.07909C50.9566 6.98783 51.0675 6.9422 51.198 6.9422H52.8221C52.9656 6.9422 53.0765 6.98783 53.1548 7.07909C53.2461 7.15731 53.2918 7.26813 53.2918 7.41153V16.6418C53.2918 16.7721 53.2461 16.8829 53.1548 16.9742C53.0765 17.0655 52.9656 17.1111 52.8221 17.1111H51.198Z" fill="white"/>
<path d="M60.4865 17.1111C59.2994 17.1111 58.4057 16.8047 57.8056 16.192C57.2186 15.5662 56.9251 14.6536 56.9251 13.4542V9.01509H55.3792C55.2487 9.01509 55.1378 8.96946 55.0465 8.8782C54.9552 8.77391 54.9095 8.65657 54.9095 8.5262V7.41153C54.9095 7.28116 54.9552 7.17035 55.0465 7.07909C55.1378 6.98783 55.2487 6.9422 55.3792 6.9422H56.9251V3.69598C56.9251 3.55257 56.9707 3.44176 57.062 3.36354C57.1534 3.27228 57.2643 3.22665 57.3947 3.22665H58.9797C59.1232 3.22665 59.2341 3.27228 59.3124 3.36354C59.4037 3.44176 59.4494 3.55257 59.4494 3.69598V6.9422H61.8954C62.0389 6.9422 62.1498 6.98783 62.2281 7.07909C62.3194 7.15731 62.3651 7.26813 62.3651 7.41153V8.5262C62.3651 8.66961 62.3194 8.78694 62.2281 8.8782C62.1368 8.96946 62.0259 9.01509 61.8954 9.01509H59.4494V13.2586C59.4494 13.8192 59.5472 14.2429 59.7429 14.5298C59.9386 14.8166 60.2647 14.96 60.7213 14.96H62.0715C62.202 14.96 62.3129 15.0056 62.4042 15.0969C62.4955 15.1881 62.5412 15.2989 62.5412 15.4293V16.6418C62.5412 16.7721 62.4955 16.8829 62.4042 16.9742C62.3259 17.0655 62.215 17.1111 62.0715 17.1111H60.4865Z" fill="white"/>
<path d="M67.2319 17.3066C66.5666 17.3066 65.9535 17.1763 65.3925 16.9155C64.8446 16.6418 64.4076 16.2767 64.0814 15.8204C63.7683 15.3641 63.6118 14.8622 63.6118 14.3146C63.6118 13.4281 63.9705 12.7111 64.688 12.1635C65.4055 11.616 66.3905 11.2444 67.6429 11.0489L70.3237 10.6578V10.2471C70.3237 9.67346 70.1802 9.24324 69.8932 8.95642C69.6062 8.66961 69.1431 8.5262 68.5039 8.5262C68.0734 8.5262 67.7211 8.61094 67.4472 8.78042C67.1863 8.93687 66.9775 9.09331 66.821 9.24976C66.6644 9.41924 66.5601 9.53005 66.5079 9.5822C66.4557 9.73865 66.3579 9.81687 66.2144 9.81687H64.7076C64.5902 9.81687 64.4858 9.77776 64.3945 9.69954C64.3162 9.62131 64.2771 9.51702 64.2771 9.38665C64.2902 9.06072 64.4467 8.68916 64.7467 8.27198C65.0598 7.85479 65.536 7.49628 66.1752 7.19642C66.8145 6.89657 67.5972 6.74665 68.5234 6.74665C70.0628 6.74665 71.1847 7.09213 71.8892 7.78309C72.5937 8.47405 72.9459 9.38013 72.9459 10.5013V16.6418C72.9459 16.7721 72.9002 16.8829 72.8089 16.9742C72.7306 17.0655 72.6197 17.1111 72.4762 17.1111H70.8912C70.7608 17.1111 70.6499 17.0655 70.5585 16.9742C70.4672 16.8829 70.4216 16.7721 70.4216 16.6418V15.8791C70.1346 16.2963 69.7236 16.6418 69.1888 16.9155C68.6669 17.1763 68.0147 17.3066 67.2319 17.3066ZM67.8972 15.4489C68.6148 15.4489 69.2018 15.2142 69.6584 14.7449C70.115 14.2755 70.3433 13.5911 70.3433 12.6915V12.2809L68.3865 12.5938C67.6298 12.7111 67.0558 12.9001 66.6644 13.1609C66.2861 13.4216 66.097 13.741 66.097 14.1191C66.097 14.5363 66.2731 14.8622 66.6253 15.0969C66.9775 15.3315 67.4015 15.4489 67.8972 15.4489Z" fill="white"/>
<path d="M75.9455 17.1111C75.815 17.1111 75.7042 17.0655 75.6128 16.9742C75.5215 16.8829 75.4759 16.7721 75.4759 16.6418V3.69598C75.4759 3.55257 75.5215 3.44176 75.6128 3.36354C75.7042 3.27228 75.815 3.22665 75.9455 3.22665H77.5697C77.7132 3.22665 77.8241 3.27228 77.9023 3.36354C77.9937 3.44176 78.0393 3.55257 78.0393 3.69598V16.6418C78.0393 16.7721 77.9937 16.8829 77.9023 16.9742C77.8241 17.0655 77.7132 17.1111 77.5697 17.1111H75.9455Z" fill="white"/>
<path d="M85.8112 17.1111C85.6807 17.1111 85.5698 17.0655 85.4785 16.9742C85.3872 16.8829 85.3415 16.7721 85.3415 16.6418V3.91109C85.3415 3.76768 85.3807 3.65035 85.4589 3.55909C85.5502 3.46783 85.6677 3.4222 85.8112 3.4222H94.4212C94.5647 3.4222 94.6821 3.46783 94.7735 3.55909C94.8648 3.65035 94.9104 3.76768 94.9104 3.91109V5.20176C94.9104 5.34516 94.8648 5.4625 94.7735 5.55376C94.6821 5.63198 94.5647 5.67109 94.4212 5.67109H87.9832V9.13242H93.9907C94.1342 9.13242 94.2516 9.17805 94.343 9.26931C94.4343 9.34753 94.4799 9.45835 94.4799 9.60176V10.8142C94.4799 10.9576 94.4343 11.0749 94.343 11.1662C94.2516 11.2444 94.1342 11.2835 93.9907 11.2835H87.9832V14.8622H94.5778C94.7213 14.8622 94.8387 14.9078 94.93 14.9991C95.0213 15.0904 95.067 15.2077 95.067 15.3511V16.6418C95.067 16.7852 95.0213 16.9025 94.93 16.9938C94.8387 17.072 94.7213 17.1111 94.5778 17.1111H85.8112Z" fill="white"/>
<path d="M97.6709 5.26042C97.5405 5.26042 97.4296 5.21479 97.3383 5.12353C97.247 5.03228 97.2013 4.92146 97.2013 4.79109V3.38309C97.2013 3.25272 97.247 3.14191 97.3383 3.05065C97.4296 2.95939 97.5405 2.91376 97.6709 2.91376H99.4517C99.5821 2.91376 99.693 2.95939 99.7843 3.05065C99.8887 3.14191 99.9409 3.25272 99.9409 3.38309V4.79109C99.9409 4.92146 99.8952 5.03228 99.8039 5.12353C99.7126 5.21479 99.5952 5.26042 99.4517 5.26042H97.6709ZM97.7492 17.1111C97.6188 17.1111 97.5079 17.0655 97.4166 16.9742C97.3252 16.8829 97.2796 16.7721 97.2796 16.6418V7.41153C97.2796 7.28116 97.3252 7.17035 97.4166 7.07909C97.5079 6.98783 97.6188 6.9422 97.7492 6.9422H99.3734C99.5169 6.9422 99.6278 6.98783 99.7061 7.07909C99.7974 7.15731 99.843 7.26813 99.843 7.41153V16.6418C99.843 16.7721 99.7974 16.8829 99.7061 16.9742C99.6278 17.0655 99.5169 17.1111 99.3734 17.1111H97.7492Z" fill="white"/>
<path d="M107.038 21.4133C105.877 21.4133 104.937 21.2178 104.22 20.8266C103.502 20.4486 102.994 20.0118 102.694 19.5164C102.394 19.021 102.244 18.5973 102.244 18.2453C102.244 18.128 102.289 18.0237 102.381 17.9324C102.485 17.8412 102.596 17.7955 102.713 17.7955H104.416C104.533 17.7955 104.631 17.8216 104.709 17.8738C104.8 17.9389 104.872 18.0498 104.924 18.2062C105.055 18.5582 105.264 18.8515 105.551 19.0862C105.851 19.3339 106.314 19.4578 106.94 19.4578C107.723 19.4578 108.297 19.2818 108.662 18.9298C109.04 18.5778 109.229 17.9715 109.229 17.1111V15.7813C108.512 16.6287 107.507 17.0524 106.216 17.0524C104.859 17.0524 103.835 16.6352 103.144 15.8009C102.465 14.9665 102.1 13.8453 102.048 12.4373L102.028 11.9093L102.048 11.3813C102.1 9.99939 102.472 8.88472 103.163 8.03731C103.855 7.17687 104.872 6.74665 106.216 6.74665C106.907 6.74665 107.514 6.87702 108.036 7.13776C108.558 7.3985 108.995 7.75702 109.347 8.21331V7.43109C109.347 7.28768 109.392 7.17035 109.484 7.07909C109.575 6.98783 109.686 6.9422 109.816 6.9422H111.402C111.532 6.9422 111.643 6.99435 111.734 7.09865C111.825 7.18991 111.871 7.30072 111.871 7.43109L111.891 16.8569C111.891 18.304 111.486 19.4252 110.677 20.2204C109.869 21.0157 108.655 21.4133 107.038 21.4133ZM106.94 14.9795C107.684 14.9795 108.238 14.7449 108.603 14.2755C108.982 13.8062 109.19 13.2326 109.229 12.5546C109.242 12.4503 109.249 12.2352 109.249 11.9093C109.249 11.5964 109.242 11.3878 109.229 11.2835C109.19 10.5926 108.982 10.0124 108.603 9.54309C108.238 9.07376 107.684 8.83909 106.94 8.83909C105.531 8.83909 104.787 9.70605 104.709 11.44L104.69 11.9093C104.69 12.8349 104.853 13.5781 105.179 14.1386C105.518 14.6992 106.105 14.9795 106.94 14.9795Z" fill="white"/>
<path d="M114.987 17.1111C114.856 17.1111 114.745 17.0655 114.654 16.9742C114.563 16.8829 114.517 16.7721 114.517 16.6418V3.69598C114.517 3.55257 114.563 3.44176 114.654 3.36354C114.745 3.27228 114.856 3.22665 114.987 3.22665H116.728C116.872 3.22665 116.983 3.27228 117.061 3.36354C117.152 3.44176 117.198 3.55257 117.198 3.69598V8.15465C117.981 7.21598 119.037 6.74665 120.368 6.74665C121.568 6.74665 122.527 7.14428 123.244 7.93954C123.962 8.72176 124.321 9.79079 124.321 11.1466V16.6418C124.321 16.7721 124.275 16.8829 124.184 16.9742C124.105 17.0655 123.995 17.1111 123.851 17.1111H122.09C121.959 17.1111 121.849 17.0655 121.757 16.9742C121.666 16.8829 121.62 16.7721 121.62 16.6418V11.264C121.62 10.4948 121.431 9.90161 121.053 9.48442C120.688 9.0542 120.153 8.83909 119.448 8.83909C118.757 8.83909 118.209 9.0542 117.804 9.48442C117.4 9.91465 117.198 10.5078 117.198 11.264V16.6418C117.198 16.7721 117.152 16.8829 117.061 16.9742C116.983 17.0655 116.872 17.1111 116.728 17.1111H114.987Z" fill="white"/>
<path d="M131.288 17.1111C130.101 17.1111 129.207 16.8047 128.607 16.192C128.02 15.5662 127.727 14.6536 127.727 13.4542V9.01509H126.181C126.05 9.01509 125.939 8.96946 125.848 8.8782C125.757 8.77391 125.711 8.65657 125.711 8.5262V7.41153C125.711 7.28116 125.757 7.17035 125.848 7.07909C125.939 6.98783 126.05 6.9422 126.181 6.9422H127.727V3.69598C127.727 3.55257 127.772 3.44176 127.864 3.36354C127.955 3.27228 128.066 3.22665 128.196 3.22665H129.781C129.925 3.22665 130.036 3.27228 130.114 3.36354C130.205 3.44176 130.251 3.55257 130.251 3.69598V6.9422H132.697C132.84 6.9422 132.951 6.98783 133.03 7.07909C133.121 7.15731 133.167 7.26813 133.167 7.41153V8.5262C133.167 8.66961 133.121 8.78694 133.03 8.8782C132.938 8.96946 132.827 9.01509 132.697 9.01509H130.251V13.2586C130.251 13.8192 130.349 14.2429 130.544 14.5298C130.74 14.8166 131.066 14.96 131.523 14.96H132.873C133.003 14.96 133.114 15.0056 133.206 15.0969C133.297 15.1881 133.343 15.2989 133.343 15.4293V16.6418C133.343 16.7721 133.297 16.8829 133.206 16.9742C133.127 17.0655 133.017 17.1111 132.873 17.1111H131.288Z" fill="white"/>
<path d="M138.934 17.3066C137.955 17.3066 137.133 17.1632 136.468 16.8764C135.803 16.5766 135.307 16.2311 134.981 15.84C134.668 15.4358 134.511 15.0903 134.511 14.8035C134.511 14.6732 134.557 14.5689 134.648 14.4906C134.739 14.4124 134.844 14.3733 134.961 14.3733H136.507C136.624 14.3733 136.722 14.4189 136.801 14.5102C136.853 14.5493 136.99 14.6666 137.212 14.8622C137.433 15.0708 137.694 15.2338 137.994 15.3511C138.294 15.4684 138.627 15.5271 138.992 15.5271C139.514 15.5271 139.945 15.4228 140.284 15.2142C140.623 15.0056 140.793 14.7188 140.793 14.3538C140.793 14.08 140.714 13.8583 140.558 13.6889C140.414 13.5194 140.147 13.3695 139.755 13.2391C139.364 13.0957 138.784 12.9458 138.014 12.7893C136.905 12.5546 136.083 12.1961 135.548 11.7138C135.026 11.2314 134.766 10.5926 134.766 9.79731C134.766 9.27583 134.922 8.78694 135.235 8.33065C135.548 7.86131 136.011 7.48324 136.624 7.19642C137.251 6.89657 137.994 6.74665 138.855 6.74665C139.729 6.74665 140.486 6.89005 141.125 7.17687C141.764 7.45065 142.247 7.78309 142.573 8.1742C142.912 8.55228 143.082 8.89124 143.082 9.19109C143.082 9.30842 143.036 9.41272 142.945 9.50398C142.867 9.5822 142.769 9.62131 142.652 9.62131H141.203C141.099 9.62131 140.988 9.57568 140.871 9.48442C140.78 9.41924 140.636 9.29539 140.44 9.11287C140.245 8.93035 140.016 8.78694 139.755 8.68265C139.495 8.57835 139.188 8.5262 138.836 8.5262C138.353 8.5262 137.975 8.6305 137.701 8.83909C137.44 9.04768 137.309 9.32146 137.309 9.66042C137.309 9.90813 137.375 10.1102 137.505 10.2666C137.636 10.4231 137.89 10.573 138.268 10.7164C138.647 10.8598 139.214 11.0032 139.971 11.1466C141.223 11.3943 142.117 11.7789 142.652 12.3004C143.199 12.8219 143.473 13.4607 143.473 14.2169C143.473 15.1295 143.076 15.8726 142.28 16.4462C141.484 17.0198 140.369 17.3066 138.934 17.3066Z" fill="white"/>
<path d="M2.69788 0.43544C2.04431 -0.171325 0.982268 -0.171324 0.410398 0.608803C-0.161471 1.30225 -0.161472 2.4291 0.573789 3.03586L8.25318 10.4037L0.573789 17.7716C-0.0797764 18.3784 -0.161471 19.5052 0.410398 20.1987C0.982268 20.8921 2.04431 20.9788 2.69788 20.372L11.6844 11.7039C12.338 11.0972 12.4197 9.97033 11.8478 9.27688C11.7661 9.1902 11.7661 9.1902 11.6844 9.10352L2.69788 0.43544Z" fill="#00B4E9"/>
<path d="M168.26 18.3333H149.726C148.769 18.3333 147.986 19.1583 147.986 20.1667C147.986 21.175 148.769 22 149.726 22H168.26C169.217 22 170 21.175 170 20.1667C170 19.1583 169.217 18.3333 168.26 18.3333Z" fill="#00B4E9"/>
</svg>
